<?xml version="1.0" encoding="UTF-8"?>
<mxfile host="app.diagrams.net" modified="2025-08-12T16:00:00.000Z" agent="5.0 (Windows)" etag="12345" version="20.2.5" type="device">
  <diagram id="diagram1" name="Arquitectura Ã³rdenes">
    <mxGraphModel dx="1267" dy="689" grid="1" gridSize="10" guides="1" tooltips="1" connect="1" arrows="1" fold="1" page="1" pageScale="1" pageWidth="850" pageHeight="1100" math="0" shadow="0">
      <root>
        <mxCell id="0"/>
        <mxCell id="1" parent="0"/>
        
        <!-- Canales -->
        <mxCell id="2" value="Canales: Web / Mobile / ATM" style="rounded=1;fillColor=#D5E8D4;fontSize=14;fontColor=#000000;" vertex="1" parent="1">
          <mxGeometry x="40" y="60" width="180" height="60" as="geometry"/>
        </mxCell>

        <!-- SQS -->
        <mxCell id="3" value="SQS: Orders Queue" style="rounded=1;fillColor=#FFE6CC;fontSize=14;fontColor=#000000;" vertex="1" parent="1">
          <mxGeometry x="280" y="60" width="180" height="60" as="geometry"/>
        </mxCell>

        <!-- Lambda -->
        <mxCell id="4" value="Lambda: processOrders" style="rounded=1;fillColor=#DAE8FC;fontSize=14;fontColor=#000000;" vertex="1" parent="1">
          <mxGeometry x="520" y="60" width="180" height="60" as="geometry"/>
        </mxCell>

        <!-- S3 -->
        <mxCell id="5" value="S3 Bucket (JSON Orders)" style="rounded=1;fillColor=#FFF2CC;fontSize=14;fontColor=#000000;" vertex="1" parent="1">
          <mxGeometry x="770" y="10" width="180" height="60" as="geometry"/>
        </mxCell>

        <!-- DynamoDB -->
        <mxCell id="6" value="DynamoDB: Orders Table" style="rounded=1;fillColor=#FFF2CC;fontSize=14;fontColor=#000000;" vertex="1" parent="1">
          <mxGeometry x="770" y="110" width="180" height="60" as="geometry"/>
        </mxCell>

        <!-- CloudWatch -->
        <mxCell id="7" value="CloudWatch Logs & Metrics" style="rounded=1;fillColor=#E1D5E7;fontSize=14;fontColor=#000000;" vertex="1" parent="1">
          <mxGeometry x="520" y="140" width="180" height="60" as="geometry"/>
        </mxCell>

        <!-- DLQ -->
        <mxCell id="8" value="Dead Letter Queue (DLQ)" style="rounded=1;fillColor=#F8CECC;fontSize=14;fontColor=#000000;" vertex="1" parent="1">
          <mxGeometry x="280" y="140" width="180" height="60" as="geometry"/>
        </mxCell>

        <!-- API Gateway -->
        <mxCell id="9" value="API Gateway" style="rounded=1;fillColor=#D5A6BD;fontSize=14;fontColor=#000000;" vertex="1" parent="1">
          <mxGeometry x="40" y="160" width="180" height="60" as="geometry"/>
        </mxCell>

        <!-- Lambda Healthcheck -->
        <mxCell id="10" value="Lambda: healthcheck" style="rounded=1;fillColor=#DAE8FC;fontSize=14;fontColor=#000000;" vertex="1" parent="1">
          <mxGeometry x="280" y="220" width="180" height="60" as="geometry"/>
        </mxCell>

        <!-- Flechas -->
        <mxCell id="11" style="edgeStyle=orthogonalEdgeStyle;rounded=0;orthogonalLoop=1;jettySize=auto;html=1;strokeColor=#000000;" edge="1" parent="1" source="2" target="3">
          <mxGeometry relative="1" as="geometry"/>
        </mxCell>

        <mxCell id="12" style="edgeStyle=orthogonalEdgeStyle;rounded=0;orthogonalLoop=1;jettySize=auto;html=1;strokeColor=#000000;" edge="1" parent="1" source="3" target="4">
          <mxGeometry relative="1" as="geometry"/>
        </mxCell>

        <mxCell id="13" style="edgeStyle=orthogonalEdgeStyle;rounded=0;orthogonalLoop=1;jettySize=auto;html=1;strokeColor=#000000;" edge="1" parent="1" source="4" target="5">
          <mxGeometry relative="1" as="geometry"/>
        </mxCell>

        <mxCell id="14" style="edgeStyle=orthogonalEdgeStyle;rounded=0;orthogonalLoop=1;jettySize=auto;html=1;strokeColor=#000000;" edge="1" parent="1" source="4" target="6">
          <mxGeometry relative="1" as="geometry"/>
        </mxCell>

        <mxCell id="15" style="edgeStyle=orthogonalEdgeStyle;rounded=0;orthogonalLoop=1;jettySize=auto;html=1;strokeColor=#000000;" edge="1" parent="1" source="4" target="7">
          <mxGeometry relative="1" as="geometry"/>
        </mxCell>

        <mxCell id="16" style="edgeStyle=orthogonalEdgeStyle;rounded=0;orthogonalLoop=1;jettySize=auto;html=1;strokeColor=#FF0000;" edge="1" parent="1" source="4" target="8">
          <mxGeometry relative="1" as="geometry"/>
        </mxCell>

        <mxCell id="17" style="edgeStyle=orthogonalEdgeStyle;rounded=0;orthogonalLoop=1;jettySize=auto;html=1;strokeColor=#000000;" edge="1" parent="1" source="9" target="10">
          <mxGeometry relative="1" as="geometry"/>
        </mxCell>

        <mxCell id="18" style="edgeStyle=orthogonalEdgeStyle;rounded=0;orthogonalLoop=1;jettySize=auto;html=1;strokeColor=#000000;" edge="1" parent="1" source="10" target="7">
          <mxGeometry relative="1" as="geometry"/>
        </mxCell>

      </root>
    </mxGraphModel>
  </diagram>
</mxfile>
